<?xml version="1.0" standalone="no"?>
<!DOCTYPE svg PUBLIC "-//W3C//DTD SVG 20010904//EN"
 "http://www.w3.org/TR/2001/REC-SVG-20010904/DTD/svg10.dtd">
<svg version="1.0" xmlns="http://www.w3.org/2000/svg"
 width="700.000000pt" height="700.000000pt" viewBox="0 0 700.000000 700.000000"
 preserveAspectRatio="xMidYMid meet">
<metadata>
Created by potrace 1.11, written by Peter Selinger 2001-2013
</metadata>
<g transform="translate(0.000000,700.000000) scale(0.100000,-0.100000)"
fill="#000000" stroke="none">
<path d="M2185 6405 c-268 -36 -488 -146 -680 -339 -188 -190 -294 -413 -331
-701 -3 -27 -7 -163 -7 -302 l-1 -251 -101 0 c-154 0 -259 -43 -347 -140 -158
-175 -176 -446 -43 -647 42 -63 131 -139 183 -156 17 -6 32 -14 32 -18 0 -4
-17 -15 -37 -25 -161 -77 -315 -222 -421 -396 -40 -66 -106 -230 -115 -285 -3
-16 -8 -46 -12 -65 -12 -64 -13 -111 -14 -670 l-1 -555 -53 -28 c-150 -79
-242 -231 -233 -387 4 -77 16 -116 52 -178 58 -98 157 -176 273 -213 59 -20
93 -22 341 -26 151 -2 284 -5 295 -6 19 -2 20 -10 20 -128 1 -122 2 -128 28
-162 63 -83 245 -138 467 -141 222 -4 433 57 498 142 26 34 27 40 27 164 l0
128 1477 0 1477 0 0 -87 c0 -181 -2 -170 38 -213 79 -88 275 -140 508 -134
167 5 320 44 410 105 54 37 65 73 65 209 l0 120 268 1 c290 0 329 3 412 26
112 31 210 102 270 195 51 78 70 145 66 233 -4 86 -31 159 -86 231 -40 50
-136 125 -180 139 -20 6 -20 18 -21 553 0 301 -2 565 -3 587 -13 171 -73 348
-169 494 -100 153 -310 325 -459 379 -43 15 -63 32 -39 32 21 0 123 105 157
162 80 132 94 312 37 460 -79 200 -223 298 -440 299 l-103 1 0 76 c-1 226 -7
510 -12 518 -3 5 -9 31 -12 57 -4 27 -18 85 -32 130 -80 253 -246 477 -466
625 -110 75 -291 150 -413 173 -30 5 -69 13 -87 16 -18 3 -564 7 -1213 8 -863
1 -1204 -2 -1270 -10z m2475 -288 c359 -69 627 -320 712 -667 19 -77 21 -119
24 -432 1 -192 0 -348 -1 -348 -2 0 -30 16 -62 35 -46 27 -138 66 -233 98 -3
1 -4 16 -3 32 12 211 -6 325 -78 473 -115 238 -346 386 -589 376 -41 -2 -82
-5 -90 -7 -8 -2 -30 -7 -49 -11 -122 -29 -280 -143 -361 -261 -63 -91 -114
-219 -127 -319 -8 -56 -9 -193 -2 -241 l4 -30 -458 -1 c-343 -2 -455 1 -449
10 118 150 161 268 160 439 -1 143 -41 259 -125 369 -147 192 -375 252 -578
153 -159 -78 -274 -241 -303 -430 -9 -53 -8 -187 1 -225 24 -102 70 -202 123
-266 19 -23 34 -44 34 -47 0 -2 -91 -5 -203 -5 -165 -1 -216 -5 -279 -21 -75
-19 -176 -65 -231 -103 -16 -11 -31 -18 -34 -14 -7 7 -7 592 0 671 18 192 129
413 274 545 131 120 312 206 473 226 25 3 46 7 47 8 5 4 2379 -2 2403 -7z
m-2026 -600 c90 -51 137 -152 133 -281 -3 -65 -9 -92 -31 -136 -33 -65 -48
-83 -95 -113 -43 -26 -119 -31 -161 -11 -126 63 -182 261 -117 417 53 125 173
181 271 124z m1953 -158 c239 -115 299 -481 116 -706 -129 -160 -343 -171
-487 -25 -45 45 -100 139 -112 192 -35 147 -18 280 49 392 102 169 270 226
434 147z m-3428 -843 c4 -3 8 -94 8 -202 l-1 -196 -97 4 c-92 3 -99 5 -128 32
-117 112 -67 349 77 366 54 6 128 4 141 -4z m2824 -61 c34 -38 61 -71 59 -74
-2 -3 -29 -33 -61 -66 -71 -73 -113 -140 -146 -231 -22 -61 -43 -165 -37 -186
1 -5 -526 -8 -1170 -8 l-1173 0 2 121 c4 182 33 274 120 370 75 82 196 136
318 139 33 1 60 2 61 3 1 1 444 2 984 1 l982 -1 61 -68z m1911 45 c79 -48 107
-191 58 -292 -35 -70 -70 -88 -176 -88 -62 0 -86 3 -86 13 -1 22 -1 362 -1
374 2 27 159 22 205 -7z m-778 -11 c58 -22 135 -76 169 -118 88 -109 107 -170
109 -346 l1 -130 -147 -3 -148 -3 0 23 c-1 49 -31 164 -59 225 -34 72 -102
164 -156 212 l-36 31 63 71 c63 70 63 70 106 64 24 -3 68 -15 98 -26z m-524
-291 c106 -49 194 -160 214 -270 l6 -38 -362 0 -362 0 5 40 c7 59 52 143 106
196 102 100 266 130 393 72z m1254 -570 c171 -39 341 -151 434 -288 64 -95 92
-158 127 -291 7 -27 15 -1103 8 -1134 -4 -20 -11 -20 -2918 -20 l-2915 0 3
565 c1 311 5 579 9 595 53 232 195 415 401 515 92 44 144 60 235 69 36 3 1073
6 2305 5 1996 -1 2248 -2 2311 -16z m743 -2038 c52 -17 107 -65 116 -103 14
-56 -19 -113 -88 -150 l-42 -22 -3075 0 -3075 0 -45 25 c-24 14 -55 41 -68 60
-53 79 8 171 131 199 16 3 1395 6 3065 5 2557 0 3044 -3 3081 -14z"/>
<path d="M1327 3064 c-1 -1 -36 -4 -77 -7 -153 -12 -268 -81 -345 -207 -57
-94 -77 -226 -50 -335 25 -102 126 -229 216 -273 101 -49 127 -52 427 -51 297
0 335 5 423 51 62 32 145 117 177 183 40 79 50 119 50 200 0 136 -64 262 -176
347 -87 66 -155 85 -312 87 -69 1 -172 3 -228 4 -57 1 -104 1 -105 1z m452
-312 c54 -27 76 -65 76 -127 0 -60 -21 -98 -73 -128 -28 -16 -58 -18 -281 -19
-276 0 -301 5 -345 65 -29 39 -29 125 0 164 43 59 64 63 339 63 218 0 254 -2
284 -18z"/>
<path d="M5356 3063 c-1 -1 -43 -3 -94 -4 -137 -3 -230 -40 -318 -128 -131
-130 -164 -327 -84 -495 33 -70 114 -157 175 -189 102 -54 127 -57 455 -54
l305 2 67 32 c166 78 263 230 260 408 -4 214 -172 399 -383 421 -57 5 -378 12
-383 7z m402 -310 c76 -43 99 -150 46 -213 -51 -60 -62 -62 -334 -62 -213 0
-254 3 -284 17 -102 49 -104 209 -3 259 49 24 532 24 575 -1z"/>
</g>
</svg>
